<svg id="Layer_1" data-name="Layer 1" xmlns="http://www.w3.org/2000/svg" viewBox="0 0 497.75 497.75"><defs><style>.cls-1{fill:#fff;}.cls-1,.cls-2{stroke:#fff;stroke-miterlimit:10;}.cls-2{fill:#231f20;}</style></defs><title>minus-circle-clear</title><path class="cls-1" d="M256,8C119,8,8,119,8,256S119,504,256,504,504,393,504,256,393,8,256,8ZM124,296a12,12,0,0,1-12-12V228a12,12,0,0,1,12-12H388a12,12,0,0,1,12,12v56a12,12,0,0,1-12,12Z" transform="translate(-7.13 -7.13)"/><path class="cls-2" d="M256,504.38a248.4,248.4,0,0,1-175.64-424A248.39,248.39,0,0,1,431.64,431.64,246.77,246.77,0,0,1,256,504.38Zm0-496C119.46,8.38,8.38,119.46,8.38,256S119.46,503.63,256,503.63,503.63,392.54,503.63,256,392.54,8.38,256,8.38Zm132,288H124A12.39,12.39,0,0,1,111.63,284V228A12.39,12.39,0,0,1,124,215.63H388A12.39,12.39,0,0,1,400.38,228v56A12.4,12.4,0,0,1,388,296.38Zm-264-80A11.63,11.63,0,0,0,112.38,228v56A11.64,11.64,0,0,0,124,295.63H388A11.65,11.65,0,0,0,399.63,284V228A11.64,11.64,0,0,0,388,216.38Z" transform="translate(-7.13 -7.13)"/></svg>